<?xml version="1.0" encoding="UTF-8"?>
<svg width="38px" height="27px" viewBox="0 0 38 27" version="1.1" xmlns="http://www.w3.org/2000/svg" xmlns:xlink="http://www.w3.org/1999/xlink">
    <g id="burger" transform="translate(0.000000, -0.000000)">
        <path d="M1.82917225,0.0645481761 C2.03798541,0.0166684401 2.25372601,0.005218938 2.46748734,0.0010554827 C13.487082,0.00209634653 24.5076662,0.00313721035 35.5272608,0.0010554827 C36.206151,-0.01872093 36.9048339,0.239413299 37.3669938,0.775458169 C38.1240652,1.60710837 38.2071946,2.99770244 37.5847137,3.93864334 C37.1383879,4.64330815 36.3249073,5.02946863 35.5292401,4.99824271 C24.5106351,4.99824271 13.4910405,4.99824271 2.47144589,4.99824271 C1.74505321,5.02530517 1.00480563,4.7109643 0.541656079,4.11454932 C-0.0996279184,3.31516591 -0.173850603,2.08798745 0.332842926,1.19492629 C0.654474561,0.621410323 1.20966024,0.204023929 1.82917225,0.0645481761 Z" id="Path"></path>
        <path d="M1.82917225,11.0645746 C2.04194395,11.0156572 2.26065346,11.0052492 2.4773837,11.001086 C13.2950926,11.0031676 24.1137912,11.0021268 34.9315001,11.0021268 C35.4223595,11.0073308 35.9300426,10.960495 36.4030885,11.1322264 C37.0958336,11.3580793 37.6569571,11.9596598 37.8776459,12.6840544 C38.1567232,13.5697724 37.9538478,14.6209771 37.3155327,15.2808422 C36.8513935,15.7752206 36.1833894,16.0177263 35.5292401,15.9989919 C24.4789668,15.9958696 13.4277038,16 2.37743049,15.9958696 C1.66093417,16.0041959 0.943448214,15.6617738 0.503060283,15.0643565 C-0.103586462,14.2639838 -0.162964609,13.0681083 0.333832562,12.1938391 C0.655464196,11.6203601 1.21163952,11.2030006 1.82917225,11.0645746 Z" id="Path"></path>
        <path d="M1.83016189,22.0635044 C2.04095431,22.0156299 2.25768455,22.0052223 2.47342516,22.0010593 C13.4910405,22.0021001 24.5086559,22.0031408 35.5262712,22.0010593 C36.2041717,21.9812851 36.9028546,22.2383506 37.3650145,22.772256 C38.1220859,23.6027756 38.2071946,24.9911378 37.5886722,25.9330177 C37.1433361,26.6386471 36.3308451,27.027888 35.5351779,26.9977063 C24.5126144,26.9977063 13.4910405,26.9977063 2.46847698,26.998747 C1.76484593,27.0216435 1.04834961,26.7302332 0.584210419,26.166146 C-0.0630113938,25.4053568 -0.176819511,24.2241041 0.264558056,23.3238542 C0.573324425,22.6848329 1.16512663,22.2123318 1.83016189,22.0635044 Z" id="Path"></path>
    </g>
</svg>