<?xml version="1.0" encoding="UTF-8"?>
<svg width="142px" height="40px" viewBox="0 0 142 40" version="1.1" xmlns="http://www.w3.org/2000/svg" xmlns:xlink="http://www.w3.org/1999/xlink">
    <title>company</title>
    <g id="Symbols" stroke="none" stroke-width="1" fill="none" fill-rule="evenodd">
        <g id="navbar" transform="translate(-120.000000, -18.000000)" fill-rule="nonzero">
            <g id="company" transform="translate(120.000000, 18.000000)">
                <path d="M53.572,30.26 C54.0573333,30.484 54.37,30.5446667 54.51,30.442 C54.65,30.3393333 54.748,30.2226667 54.804,30.092 C54.8413333,30.036 54.874,29.9566667 54.902,29.854 C54.93,29.7513333 54.944,29.6393333 54.944,29.518 C54.944,29.3966667 54.9346667,29.308 54.916,29.252 C54.8973333,29.14 54.8086667,29.0233333 54.65,28.902 C54.4913333,28.7806667 54.3233333,28.664 54.146,28.552 C53.9686667,28.44 53.8333333,28.3746667 53.74,28.356 C53.572,28.356 53.32,28.244 52.984,28.02 C52.648,27.796 52.2653333,27.4506667 51.836,26.984 C51.5186667,26.6666667 51.22,26.27 50.94,25.794 C50.66,25.318 50.408,24.8373333 50.184,24.352 C49.904,23.848 49.666,23.2646667 49.47,22.602 C49.323,22.105 49.204875,21.510875 49.115625,20.819625 L49.082,20.545 L49.22976,20.42864 L49.22976,20.42864 L49.442,20.264 C49.806,19.984 50.156,19.7273333 50.492,19.494 C50.828,19.2606667 51.0613333,19.1066667 51.192,19.032 C51.3786667,19.0506667 51.5326667,18.976 51.654,18.808 C51.7753333,18.64 51.8546667,18.5093333 51.892,18.416 C51.9666667,18.3226667 52.074,18.2293333 52.214,18.136 C52.354,18.0426667 52.424,17.996 52.424,17.996 C52.4986667,18.0146667 52.5686667,17.996 52.634,17.94 C52.6993333,17.884 52.7693333,17.856 52.844,17.856 C52.9933333,17.632 53.334,17.3053333 53.866,16.876 C54.398,16.4466667 55.0373333,15.9893333 55.784,15.504 C56.3253333,15.1306667 56.7686667,14.8086667 57.114,14.538 C57.4593333,14.2673333 57.632,14.132 57.632,14.132 C57.688,14.02 57.8513333,13.88 58.122,13.712 C58.3926667,13.544 58.7053333,13.376 59.06,13.208 C59.4893333,12.9653333 59.76,12.7786667 59.872,12.648 C59.984,12.5173333 60.0213333,12.3586667 59.984,12.172 C60.0026667,12.0226667 59.9606667,11.85 59.858,11.654 C59.7553333,11.458 59.6246667,11.2993333 59.466,11.178 C59.3073333,11.0566667 59.1533333,11.0333333 59.004,11.108 C58.9293333,11.0893333 58.7706667,11.164 58.528,11.332 C58.2853333,11.5 58.0053333,11.696 57.688,11.92 C57.4266667,12.088 57.0486667,12.3586667 56.554,12.732 C56.0593333,13.1053333 55.5786667,13.4133333 55.112,13.656 L55.112,13.656 L51.668,16.456 C50.8653333,17.0533333 50.2913333,17.5106667 49.946,17.828 C49.6006667,18.1453333 49.4,18.332 49.344,18.388 L49.344,18.388 L48.393,19.079 L48.3952812,19.0462188 C48.4084062,18.9490938 48.4609063,18.7705937 48.5527813,18.5107187 L48.602,18.374 C48.742,17.9913333 48.9286667,17.534 49.162,17.002 C49.3953333,16.47 49.6473333,15.91 49.918,15.322 C50.1886667,14.734 50.4453333,14.1833333 50.688,13.67 C50.9306667,13.1566667 51.1266667,12.732 51.276,12.396 C51.4253333,12.172 51.5093333,11.962 51.528,11.766 C51.5466667,11.57 51.4813333,11.3226667 51.332,11.024 C51.1826667,10.7066667 51.0006667,10.5293333 50.786,10.492 C50.5713333,10.4546667 50.3426667,10.52 50.1,10.688 C50.0253333,10.7626667 49.9553333,10.856 49.89,10.968 C49.8246667,11.08 49.792,11.136 49.792,11.136 C49.792,11.136 49.7546667,11.262 49.68,11.514 C49.6053333,11.766 49.4746667,12.032 49.288,12.312 C49.1573333,12.6106667 49.0173333,12.8953333 48.868,13.166 C48.7186667,13.4366667 48.644,13.6186667 48.644,13.712 L48.644,13.712 L48.644,14.02 C48.588,14.02 48.4946667,14.16 48.364,14.44 C48.2333333,14.72 48.084,15.056 47.916,15.448 C47.748,15.84 47.58,16.2133333 47.412,16.568 C47.1693333,17.2026667 46.9406667,17.8233333 46.726,18.43 C46.5113333,19.0366667 46.348,19.4986667 46.236,19.816 C46.1613333,20.1146667 46.0586667,20.404 45.928,20.684 C45.7973333,20.964 45.676,21.2253333 45.564,21.468 C45.564,21.6173333 45.5406667,21.8273333 45.494,22.098 C45.4473333,22.3686667 45.3773333,22.616 45.284,22.84 C45.1906667,22.9893333 45.1066667,23.1433333 45.032,23.302 C44.9573333,23.4606667 44.92,23.6146667 44.92,23.764 C44.92,23.8386667 44.85,24.0393333 44.71,24.366 C44.57,24.6926667 44.4253333,25.0426667 44.276,25.416 C44.1826667,25.7893333 44.0753333,26.1533333 43.954,26.508 C43.8326667,26.8626667 43.772,27.1146667 43.772,27.264 C43.772,27.3386667 43.7626667,27.432 43.744,27.544 C43.7253333,27.656 43.6693333,27.712 43.576,27.712 C43.5573333,27.7866667 43.5246667,27.9266667 43.478,28.132 C43.4313333,28.3373333 43.4173333,28.5613333 43.436,28.804 C43.324,29.196 43.2773333,29.462 43.296,29.602 C43.3146667,29.742 43.4453333,29.8866667 43.688,30.036 C43.8186667,30.1106667 43.926,30.1806667 44.01,30.246 C44.094,30.3113333 44.1733333,30.344 44.248,30.344 C44.3786667,30.344 44.5046667,30.218 44.626,29.966 C44.7473333,29.714 44.9106667,29.2566667 45.116,28.594 C45.3213333,27.9313333 45.6106667,27.0026667 45.984,25.808 C46.1893333,25.1173333 46.3666667,24.5293333 46.516,24.044 C46.6653333,23.5586667 46.7913333,23.1666667 46.894,22.868 C46.9966667,22.5693333 47.0806667,22.3453333 47.146,22.196 C47.2113333,22.0466667 47.244,21.9533333 47.244,21.916 L47.244,21.916 L47.588,21.069 L47.58,21.608 C47.6098667,21.7872 47.6696,22.0052267 47.7592,22.26208 L47.832,22.462 C47.9626667,22.8073333 48.0933333,23.2786667 48.224,23.876 C48.448,24.6786667 48.784,25.43 49.232,26.13 C49.68,26.83 50.0533333,27.3946667 50.352,27.824 C50.52,28.0293333 50.7486667,28.272 51.038,28.552 C51.3273333,28.832 51.6353333,29.1026667 51.962,29.364 C52.2886667,29.6253333 52.5966667,29.8446667 52.886,30.022 C53.1753333,30.1993333 53.404,30.2786667 53.572,30.26 Z M55.686,34.642 C56.218,34.726 56.708,34.7026667 57.156,34.572 C57.4173333,34.4973333 57.6926667,34.3666667 57.982,34.18 C58.2713333,33.9933333 58.556,33.788 58.836,33.564 C59.116,33.34 59.3493333,33.144 59.536,32.976 C59.984,32.4346667 60.4086667,31.8513333 60.81,31.226 C61.2113333,30.6006667 61.6266667,29.9426667 62.056,29.252 C62.2613333,28.7293333 62.4573333,28.272 62.644,27.88 C62.8306667,27.488 63.0453333,27.0586667 63.288,26.592 C63.5306667,26.1253333 63.82,25.5186667 64.156,24.772 C64.2493333,24.548 64.3566667,24.3006667 64.478,24.03 C64.5993333,23.7593333 64.7066667,23.512 64.8,23.288 C64.8933333,23.176 65.0286667,22.938 65.206,22.574 C65.3833333,22.21 65.5466667,21.804 65.696,21.356 C65.976,20.8333333 66.1673333,20.418 66.27,20.11 C66.3726667,19.802 66.396,19.5406667 66.34,19.326 C66.284,19.1113333 66.144,18.892 65.92,18.668 C65.7146667,18.556 65.5793333,18.5 65.514,18.5 C65.4486667,18.5 65.332,18.5653333 65.164,18.696 L65.164,18.696 L65.0811667,18.7329444 C64.9450556,18.8094259 64.8186667,18.9604444 64.702,19.186 C64.562,19.4566667 64.38,19.8066667 64.156,20.236 C63.9693333,20.572 63.7826667,21.0106667 63.596,21.552 C63.4093333,22.0933333 63.2693333,22.504 63.176,22.784 C63.0453333,23.064 62.9053333,23.344 62.756,23.624 C62.6066667,23.904 62.5226667,24.0906667 62.504,24.184 C62.4853333,24.2586667 62.434,24.394 62.35,24.59 C62.266,24.786 62.168,24.996 62.056,25.22 C61.944,25.3506667 61.8506667,25.5186667 61.776,25.724 C61.7013333,25.9293333 61.636,26.1066667 61.58,26.256 C61.5277333,26.3754667 61.47304,26.4969867 61.41592,26.62056 L61.407,26.639 L61.3802813,26.6186875 C61.1554063,26.4314375 60.9699063,26.1444375 60.8237812,25.7576875 L60.754,25.556 C60.5766667,24.996 60.4693333,24.3426667 60.432,23.596 C60.3946667,22.8493333 60.3946667,22.1026667 60.432,21.356 C60.5253333,20.012 60.4833333,19.0926667 60.306,18.598 C60.1286667,18.1033333 59.7786667,17.968 59.256,18.192 L59.256,18.192 L59.1813333,18.2557778 C59.1315556,18.3034815 59.0817778,18.3615556 59.032,18.43 C58.9573333,18.5326667 58.9293333,18.7333333 58.948,19.032 C58.9293333,19.256 58.92,19.5593333 58.92,19.942 C58.92,20.3246667 58.8826667,20.6746667 58.808,20.992 C58.7706667,21.44 58.7566667,21.916 58.766,22.42 C58.7753333,22.924 58.7986667,23.4 58.836,23.848 C58.8733333,24.296 58.934,24.66 59.018,24.94 C59.102,25.22 59.2,25.36 59.312,25.36 L59.312,25.36 L59.312,25.668 C59.2746667,25.8173333 59.3306667,26.06 59.48,26.396 C59.6293333,26.732 59.8393333,27.0493333 60.11,27.348 C60.3033333,27.5613333 60.4990476,27.708 60.6971429,27.788 L60.815,27.828 L60.614,28.202 C60.3078667,28.762 60.0106933,29.2831733 59.72248,29.76552 L59.508,30.12 C59.1533333,30.6986667 58.9013333,31.1 58.752,31.324 C58.4906667,31.6786667 58.15,32.0613333 57.73,32.472 C57.31,32.8826667 56.8853333,33.1346667 56.456,33.228 C55.9706667,33.3213333 55.532,33.298 55.14,33.158 C54.748,33.018 54.4773333,32.9013333 54.328,32.808 C54.2346667,32.696 54.1273333,32.6633333 54.006,32.71 C53.8846667,32.7566667 53.782,32.8453333 53.698,32.976 C53.614,33.1066667 53.5813333,33.228 53.6,33.34 C53.656,33.6386667 53.8846667,33.9093333 54.286,34.152 C54.6873333,34.3946667 55.154,34.558 55.686,34.642 Z M69.9737778,28.8370909 L70.008,28.832 C70.8666667,28.6266667 71.66,28.1973333 72.388,27.544 C73.116,26.8906667 73.7646667,26.116 74.334,25.22 C74.9033333,24.324 75.356,23.4093333 75.692,22.476 C75.692,22.2893333 75.7573333,22.0933333 75.888,21.888 C76.0186667,21.6826667 76.0933333,21.4213333 76.112,21.104 C76.2426667,20.824 76.2846667,20.5206667 76.238,20.194 C76.1913333,19.8673333 76.2613333,19.5826667 76.448,19.34 C76.504,18.7986667 76.5366667,18.4113333 76.546,18.178 C76.5553333,17.9446667 76.5413333,17.6786667 76.504,17.38 C76.4666667,16.3346667 76.3546667,15.4106667 76.168,14.608 C75.9813333,13.8053333 75.6406667,13.1193333 75.146,12.55 C74.6513333,11.9806667 73.9186667,11.5373333 72.948,11.22 C72.6493333,11.052 72.3646667,10.9773333 72.094,10.996 C71.8233333,11.0146667 71.5573333,11.052 71.296,11.108 C71.072,11.1453333 70.848,11.2293333 70.624,11.36 C70.4,11.4906667 70.2133333,11.6213333 70.064,11.752 C69.9893333,12.0133333 70.0406667,12.2746667 70.218,12.536 C70.3953333,12.7973333 70.596,12.9746667 70.82,13.068 C71.5106667,12.7693333 72.1266667,12.7133333 72.668,12.9 C73.2093333,13.0866667 73.704,13.488 74.152,14.104 C74.3946667,14.4213333 74.558,14.846 74.642,15.378 C74.726,15.91 74.754,16.4606667 74.726,17.03 C74.698,17.5993333 74.6326667,18.1033333 74.53,18.542 C74.4273333,18.9806667 74.3013333,19.256 74.152,19.368 C74.04,19.2746667 73.9373333,19.1813333 73.844,19.088 C73.7506667,18.9946667 73.6013333,18.92 73.396,18.864 C72.9853333,18.7146667 72.626,18.6913333 72.318,18.794 C72.01,18.8966667 71.7066667,19.0226667 71.408,19.172 C70.9413333,19.396 70.4933333,19.7133333 70.064,20.124 C69.6346667,20.5346667 69.2753333,20.95 68.986,21.37 C68.6966667,21.79 68.5053333,22.1306667 68.412,22.392 C68.2813333,22.6346667 68.104,23.0033333 67.88,23.498 C67.656,23.9926667 67.5533333,24.4733333 67.572,24.94 C67.5906667,25.2386667 67.6046667,25.542 67.614,25.85 C67.6233333,26.158 67.6933333,26.452 67.824,26.732 C67.824,26.9933333 67.8846667,27.222 68.006,27.418 C68.1273333,27.614 68.2626667,27.8053333 68.412,27.992 C68.5426667,28.1226667 68.7246667,28.258 68.958,28.398 C69.1913333,28.538 69.4106667,28.65 69.616,28.734 C69.8213333,28.818 69.952,28.8506667 70.008,28.832 L69.9737778,28.8370909 Z M70.68,26.774 C70.3066667,27.0073333 70.0266667,27.0866667 69.84,27.012 C69.6346667,26.9186667 69.4853333,26.7133333 69.392,26.396 C69.2986667,26.0786667 69.252,25.7706667 69.252,25.472 C69.252,25.3786667 69.2893333,25.1313333 69.364,24.73 C69.4386667,24.3286667 69.5973333,23.8946667 69.84,23.428 C69.9333333,23.3346667 70.022,23.2413333 70.106,23.148 C70.19,23.0546667 70.2226667,22.9426667 70.204,22.812 C70.4466667,22.5133333 70.6846667,22.182 70.918,21.818 C71.1513333,21.454 71.4173333,21.16 71.716,20.936 C72.1266667,20.6373333 72.5606667,20.4226667 73.018,20.292 C73.4753333,20.1613333 73.8066667,20.2173333 74.012,20.46 C74.1426667,20.5906667 74.194,20.866 74.166,21.286 C74.138,21.706 74.04,22.1493333 73.872,22.616 C73.8533333,22.6906667 73.774,22.868 73.634,23.148 C73.494,23.428 73.3446667,23.7173333 73.186,24.016 C73.0273333,24.3146667 72.9013333,24.5293333 72.808,24.66 C72.5466667,25.0333333 72.22,25.4206667 71.828,25.822 C71.436,26.2233333 71.0533333,26.5406667 70.68,26.774 Z M76.602,33.872 C76.8353333,34.04 77.064,34.0493333 77.288,33.9 C77.3813333,33.844 77.512,33.5686667 77.68,33.074 C77.848,32.5793333 77.9506667,32.08 77.988,31.576 C78.044,31.352 78.1186667,31.0953333 78.212,30.806 C78.3053333,30.5166667 78.4266667,30.1713333 78.576,29.77 C78.7253333,29.3686667 78.8933333,28.8973333 79.08,28.356 C79.192,28.2066667 79.2573333,28.0946667 79.276,28.02 C79.2946667,27.9453333 79.304,27.908 79.304,27.908 C79.3786667,27.852 79.4253333,27.782 79.444,27.698 C79.4626667,27.614 79.4813333,27.5066667 79.5,27.376 C79.5186667,27.3013333 79.57,27.1473333 79.654,26.914 C79.738,26.6806667 79.8266667,26.4426667 79.92,26.2 C80.088,26.6853333 80.2746667,27.0026667 80.48,27.152 C80.536,27.1893333 80.6386667,27.2033333 80.788,27.194 C80.9373333,27.1846667 81.11,27.1473333 81.306,27.082 C81.502,27.0166667 81.6933333,26.9186667 81.88,26.788 C82.4773333,26.452 83.0653333,26.06 83.644,25.612 C84.2226667,25.164 84.7266667,24.604 85.156,23.932 C85.156,23.932 85.212,23.8433333 85.324,23.666 C85.436,23.4886667 85.5526667,23.2926667 85.674,23.078 C85.7953333,22.8633333 85.8746667,22.7093333 85.912,22.616 C86.1733333,21.9626667 86.2993333,21.4213333 86.29,20.992 C86.2806667,20.5626667 86.0893333,20.1146667 85.716,19.648 C85.4546667,19.4053333 85.1046667,19.2373333 84.666,19.144 C84.2273333,19.0506667 83.8213333,19.0786667 83.448,19.228 C83.3733333,19.3026667 83.2846667,19.3633333 83.182,19.41 C83.0793333,19.4566667 83.028,19.48 83.028,19.48 C82.9533333,19.5546667 82.7993333,19.662 82.566,19.802 C82.3326667,19.942 82.1133333,20.0633333 81.908,20.166 C81.7026667,20.2686667 81.6,20.32 81.6,20.32 C81.5253333,20.32 81.488,20.3153333 81.488,20.306 C81.488,20.2966667 81.5066667,20.2546667 81.544,20.18 C81.544,20.0866667 81.488,19.928 81.376,19.704 C81.264,19.48 81.1473333,19.2793333 81.026,19.102 C80.9046667,18.9246667 80.8253333,18.864 80.788,18.92 C80.6946667,18.9013333 80.648,18.8453333 80.648,18.752 C80.6666667,18.7146667 80.6013333,18.6726667 80.452,18.626 C80.3026667,18.5793333 80.13,18.5466667 79.934,18.528 C79.738,18.5093333 79.556,18.5373333 79.388,18.612 C79.2386667,18.668 79.1266667,18.7706667 79.052,18.92 C78.9773333,19.0693333 78.9586667,19.214 78.996,19.354 C79.0333333,19.494 79.1266667,19.6013333 79.276,19.676 C79.556,19.788 79.7006667,20.0913333 79.71,20.586 C79.7193333,21.0806667 79.6213333,21.5986667 79.416,22.14 C79.2293333,22.6066667 79.0706667,23.036 78.94,23.428 C78.8093333,23.82 78.7253333,24.1186667 78.688,24.324 C78.632,24.4546667 78.5993333,24.5573333 78.59,24.632 C78.5806667,24.7066667 78.5666667,24.7813333 78.548,24.856 C78.4733333,24.8746667 78.422,24.9773333 78.394,25.164 C78.366,25.3506667 78.3333333,25.5093333 78.296,25.64 C78.2026667,25.7706667 78.1186667,25.9246667 78.044,26.102 C77.9693333,26.2793333 77.9133333,26.4426667 77.876,26.592 C77.8013333,26.6853333 77.7313333,26.816 77.666,26.984 C77.6006667,27.152 77.5493333,27.3013333 77.512,27.432 C77.512,27.5626667 77.4886667,27.7493333 77.442,27.992 C77.3953333,28.2346667 77.316,28.4493333 77.204,28.636 C77.1293333,28.7666667 77.0313333,28.9813333 76.91,29.28 C76.7886667,29.5786667 76.6813333,29.882 76.588,30.19 C76.4946667,30.498 76.4386667,30.7173333 76.42,30.848 C76.4013333,31.0346667 76.3546667,31.254 76.28,31.506 C76.2053333,31.758 76.1493333,31.94 76.112,32.052 C75.9813333,32.4253333 75.972,32.78 76.084,33.116 C76.196,33.452 76.3686667,33.704 76.602,33.872 Z M80.62,25.92 C80.4146667,25.92 80.298,25.7333333 80.27,25.36 C80.242,24.9866667 80.3166667,24.5293333 80.494,23.988 C80.6713333,23.4466667 80.956,22.924 81.348,22.42 C81.684,21.9906667 82.076,21.6406667 82.524,21.37 C82.972,21.0993333 83.3826667,20.9033333 83.756,20.782 C84.1293333,20.6606667 84.3533333,20.6093333 84.428,20.628 C84.54,20.74 84.6006667,20.8753333 84.61,21.034 C84.6193333,21.1926667 84.5866667,21.3466667 84.512,21.496 C84.456,21.664 84.3906667,21.8413333 84.316,22.028 C84.2413333,22.2146667 84.176,22.3826667 84.12,22.532 C84.0453333,22.7746667 83.9426667,22.994 83.812,23.19 C83.6813333,23.386 83.5413333,23.568 83.392,23.736 C83.2986667,23.848 83.1166667,24.016 82.846,24.24 C82.5753333,24.464 82.2813333,24.702 81.964,24.954 C81.6466667,25.206 81.362,25.4206667 81.11,25.598 C80.858,25.7753333 80.6946667,25.8826667 80.62,25.92 Z M92.744,29 C92.9493333,28.9066667 93.108,28.818 93.22,28.734 C93.332,28.65 93.3973333,28.468 93.416,28.188 C93.4346667,28.02 93.4766667,27.8473333 93.542,27.67 C93.6073333,27.4926667 93.6213333,27.32 93.584,27.152 C93.7146667,26.816 93.878,26.3026667 94.074,25.612 C94.27,24.9213333 94.466,24.1653333 94.662,23.344 C94.858,22.5226667 95.0213333,21.7526667 95.152,21.034 C95.2826667,20.3153333 95.348,19.7786667 95.348,19.424 C95.348,19.0506667 95.264,18.7613333 95.096,18.556 C94.928,18.3506667 94.6853333,18.1733333 94.368,18.024 L93.668,18.024 L93.668,18.024 C93.444,18.024 93.2106667,18.0146667 92.968,17.996 C92.6506667,17.9586667 92.3053333,17.9726667 91.932,18.038 C91.5586667,18.1033333 91.2133333,18.1546667 90.896,18.192 C90.8586667,18.192 90.8213333,18.2013333 90.784,18.22 C90.7466667,18.2386667 90.7093333,18.2666667 90.672,18.304 C90.3733333,18.472 90.14,18.612 89.972,18.724 C89.804,18.836 89.664,18.948 89.552,19.06 C89.384,19.228 89.2673333,19.424 89.202,19.648 C89.1366667,19.872 89.02,20.2266667 88.852,20.712 C88.7773333,20.9173333 88.7446667,21.1133333 88.754,21.3 C88.7633333,21.4866667 88.796,21.6826667 88.852,21.888 C89.0013333,22.336 89.16,22.658 89.328,22.854 C89.496,23.05 89.7106667,23.2413333 89.972,23.428 C90.1213333,23.484 90.2706667,23.5446667 90.42,23.61 C90.5693333,23.6753333 90.7093333,23.736 90.84,23.792 C90.5413333,23.9973333 90.1586667,24.254 89.692,24.562 C89.2253333,24.87 88.7773333,25.1453333 88.348,25.388 C87.9186667,25.6306667 87.5826667,25.7893333 87.34,25.864 C87.1346667,25.92 86.9526667,26.004 86.794,26.116 C86.6353333,26.228 86.4906667,26.3773333 86.36,26.564 C86.416,26.8626667 86.514,27.138 86.654,27.39 C86.794,27.642 87.032,27.7773333 87.368,27.796 C87.4053333,27.796 87.578,27.7026667 87.886,27.516 C88.194,27.3293333 88.544,27.11 88.936,26.858 C89.328,26.606 89.6873333,26.3726667 90.014,26.158 C90.3406667,25.9433333 90.5506667,25.808 90.644,25.752 C90.7186667,25.696 90.896,25.57 91.176,25.374 C91.456,25.178 91.7173333,25.0146667 91.96,24.884 C92.0906667,24.8093333 92.2026667,24.7626667 92.296,24.744 C92.3893333,24.7253333 92.4453333,24.744 92.464,24.8 C92.3333333,25.3786667 92.1886667,25.9713333 92.03,26.578 C91.8713333,27.1846667 91.8106667,27.796 91.848,28.412 C91.9973333,28.5053333 92.1466667,28.6033333 92.296,28.706 C92.4453333,28.8086667 92.5946667,28.9066667 92.744,29 Z M92.772,23.512 C92.5293333,23.3066667 92.226,23.1106667 91.862,22.924 C91.498,22.7373333 91.176,22.5506667 90.896,22.364 C90.7093333,22.2146667 90.574,22.0606667 90.49,21.902 C90.406,21.7433333 90.364,21.58 90.364,21.412 C90.3826667,21.132 90.4666667,20.8613333 90.616,20.6 C90.7653333,20.3386667 90.952,20.1006667 91.176,19.886 C91.4,19.6713333 91.624,19.508 91.848,19.396 C92.0533333,19.3026667 92.3566667,19.2653333 92.758,19.284 C93.1593333,19.3026667 93.472,19.312 93.696,19.312 C93.7146667,19.4053333 93.71,19.606 93.682,19.914 C93.654,20.222 93.6166667,20.5206667 93.57,20.81 C93.5233333,21.0993333 93.4813333,21.2906667 93.444,21.384 C93.2946667,21.72 93.1873333,22.0653333 93.122,22.42 C93.0566667,22.7746667 92.94,23.1386667 92.772,23.512 Z M99.464,27.852 C99.744,27.9453333 99.926,27.9686667 100.01,27.922 C100.094,27.8753333 100.238667,27.8613333 100.444,27.88 C100.873333,27.8986667 101.302667,27.8473333 101.732,27.726 L101.99072,27.66048 C102.337173,27.5828267 102.6896,27.544 103.048,27.544 C103.104,27.544 103.155333,27.5486667 103.202,27.558 C103.248667,27.5673333 103.3,27.5626667 103.356,27.544 C103.673333,27.4506667 104.014,27.4226667 104.378,27.46 C104.742,27.4973333 105.064,27.46 105.344,27.348 C105.512,27.2733333 105.764,27.2313333 106.1,27.222 C106.436,27.2126667 106.767333,27.2126667 107.094,27.222 C107.420667,27.2313333 107.649333,27.236 107.78,27.236 C108.078667,27.012 108.256,26.8113333 108.312,26.634 C108.368,26.4566667 108.386667,26.3026667 108.368,26.172 C108.349333,26.0413333 108.368,25.948 108.424,25.892 C108.592,25.5186667 108.750667,25.0333333 108.9,24.436 C109.049333,23.8386667 109.189333,23.3346667 109.32,22.924 C109.32,22.7 109.352667,22.49 109.418,22.294 C109.483333,22.098 109.548667,21.8926667 109.614,21.678 C109.679333,21.4633333 109.702667,21.2533333 109.684,21.048 C109.814667,20.8053333 109.870667,20.5533333 109.852,20.292 C109.833333,20.0306667 109.833333,19.7693333 109.852,19.508 C109.516,18.7986667 108.984,18.5373333 108.256,18.724 C108.144,18.7986667 108.064667,18.8966667 108.018,19.018 C107.971333,19.1393333 107.929333,19.256 107.892,19.368 C107.910667,19.5173333 107.952667,19.634 108.018,19.718 C108.083333,19.802 108.06,19.9186667 107.948,20.068 C107.929333,20.0866667 107.910667,20.194 107.892,20.39 C107.873333,20.586 107.85,20.7866667 107.822,20.992 C107.794,21.1973333 107.770667,21.3373333 107.752,21.412 C107.714667,21.58 107.644667,21.86 107.542,22.252 C107.439333,22.644 107.322667,23.0686667 107.192,23.526 C107.061333,23.9833333 106.935333,24.394 106.814,24.758 C106.692667,25.122 106.594667,25.36 106.52,25.472 L106.52,25.472 L105.988,25.472 C105.82,25.472 105.642667,25.5093333 105.456,25.584 C105.362667,25.6213333 105.278667,25.6213333 105.204,25.584 C105.129333,25.5466667 105.017333,25.5466667 104.868,25.584 C104.644,25.6586667 104.415333,25.682 104.182,25.654 C103.948667,25.626 103.701333,25.6586667 103.44,25.752 C103.309333,25.808 103.206667,25.752 103.132,25.584 C103.393333,24.8186667 103.603333,24.0346667 103.762,23.232 C103.920667,22.4293333 104.177333,21.6546667 104.532,20.908 C104.625333,20.7213333 104.672,20.558 104.672,20.418 C104.672,20.278 104.597333,20.124 104.448,19.956 C104.392,19.8813333 104.340667,19.8113333 104.294,19.746 C104.247333,19.6806667 104.196,19.6106667 104.14,19.536 C104.028,19.4986667 103.911333,19.4706667 103.79,19.452 C103.668667,19.4333333 103.552,19.4146667 103.44,19.396 C103.328,19.4333333 103.216,19.48 103.104,19.536 C102.992,19.592 102.889333,19.648 102.796,19.704 C102.758667,19.7786667 102.684,20.0073333 102.572,20.39 C102.46,20.7726667 102.334,21.2206667 102.194,21.734 C102.054,22.2473333 101.918667,22.756 101.788,23.26 C101.657333,23.764 101.545333,24.198 101.452,24.562 C101.358667,24.926 101.312,25.136 101.312,25.192 C101.312,25.304 101.321333,25.4206667 101.34,25.542 C101.358667,25.6633333 101.377333,25.78 101.396,25.892 C101.097333,26.0413333 100.794,26.1113333 100.486,26.102 C100.178,26.0926667 99.856,26.088 99.52,26.088 C99.2213333,26.088 98.9833333,25.9386667 98.806,25.64 C98.6286667,25.3413333 98.5306667,25.0706667 98.512,24.828 C98.4933333,24.4733333 98.526,24.0673333 98.61,23.61 C98.694,23.1526667 98.806,22.7 98.946,22.252 C99.086,21.804 99.2306667,21.4306667 99.38,21.132 C99.4733333,20.964 99.562,20.8006667 99.646,20.642 C99.73,20.4833333 99.8093333,20.32 99.884,20.152 C99.94,20.0026667 99.968,19.858 99.968,19.718 C99.968,19.578 99.9026667,19.452 99.772,19.34 C99.6413333,19.2093333 99.4966667,19.0926667 99.338,18.99 C99.1793333,18.8873333 99.016,18.7893333 98.848,18.696 C98.6053333,18.752 98.3953333,18.9153333 98.218,19.186 C98.0406667,19.4566667 97.8866667,19.774 97.756,20.138 C97.6253333,20.502 97.5086667,20.8566667 97.406,21.202 C97.3033333,21.5473333 97.196,21.8226667 97.084,22.028 C97.0093333,22.5133333 96.9253333,23.0126667 96.832,23.526 C96.7386667,24.0393333 96.7106667,24.5386667 96.748,25.024 C96.8226667,25.7893333 97.126,26.3913333 97.658,26.83 C98.19,27.2686667 98.792,27.6093333 99.464,27.852 Z M118.936,28.6502857 L118.994,28.65 C119.115333,28.6406667 119.227333,28.5753333 119.33,28.454 C119.432667,28.3326667 119.614667,28.188 119.876,28.02 C119.857333,27.908 119.843333,27.7913333 119.834,27.67 C119.824667,27.5486667 119.796667,27.4366667 119.75,27.334 C119.703333,27.2313333 119.605333,27.1426667 119.456,27.068 C119.008,27.068 118.63,26.9886667 118.322,26.83 C118.014,26.6713333 117.841333,26.3586667 117.804,25.892 C117.673333,25.6306667 117.505333,25.3086667 117.3,24.926 C117.094667,24.5433333 116.861333,24.1373333 116.6,23.708 C117.16,23.316 117.724667,22.896 118.294,22.448 C118.863333,22 119.4,21.5706667 119.904,21.16 C120.408,20.7493333 120.828,20.4133333 121.164,20.152 C121.350667,20.0026667 121.453333,19.7926667 121.472,19.522 C121.490667,19.2513333 121.453333,19.0786667 121.36,19.004 C121.042667,18.7426667 120.828,18.5793333 120.716,18.514 C120.604,18.4486667 120.408,18.3973333 120.128,18.36 C119.922667,18.4346667 119.759333,18.542 119.638,18.682 C119.516667,18.822 119.4,18.976 119.288,19.144 C119.269333,19.1813333 119.134,19.3213333 118.882,19.564 C118.63,19.8066667 118.340667,20.0866667 118.014,20.404 C117.687333,20.7213333 117.379333,21.0153333 117.09,21.286 C116.800667,21.5566667 116.609333,21.7386667 116.516,21.832 C116.273333,22.0933333 116.082,22.2846667 115.942,22.406 C115.802,22.5273333 115.657333,22.6113333 115.508,22.658 C115.358667,22.7046667 115.125333,22.7653333 114.808,22.84 C114.994667,22.28 115.162667,21.8413333 115.312,21.524 C115.461333,21.2066667 115.615333,20.9126667 115.774,20.642 C115.932667,20.3713333 116.133333,20.0213333 116.376,19.592 C116.488,19.3866667 116.53,19.1906667 116.502,19.004 C116.474,18.8173333 116.385333,18.64 116.236,18.472 C116.198667,18.416 116.142667,18.374 116.068,18.346 C115.993333,18.318 115.937333,18.2946667 115.9,18.276 C115.769333,18.052 115.606,17.9446667 115.41,17.954 C115.214,17.9633333 115.041333,18.0286667 114.892,18.15 C114.742667,18.2713333 114.649333,18.3973333 114.612,18.528 C114.5,19.0506667 114.299333,19.5313333 114.01,19.97 C113.720667,20.4086667 113.52,20.8146667 113.408,21.188 C113.389333,21.3 113.296,21.5846667 113.128,22.042 C112.96,22.4993333 112.773333,23.0126667 112.568,23.582 C112.362667,24.1513333 112.171333,24.6786667 111.994,25.164 C111.816667,25.6493333 111.709333,25.976 111.672,26.144 C111.597333,26.3306667 111.550667,26.5266667 111.532,26.732 C111.513333,26.9373333 111.56,27.152 111.672,27.376 C111.784,27.5066667 111.919333,27.6373333 112.078,27.768 C112.236667,27.8986667 112.428,27.9733333 112.652,27.992 C112.838667,27.8613333 112.992667,27.712 113.114,27.544 C113.235333,27.376 113.324,27.1893333 113.38,26.984 C113.473333,26.6666667 113.562,26.3446667 113.646,26.018 C113.73,25.6913333 113.865333,25.3973333 114.052,25.136 C114.052,24.7626667 114.103333,24.4873333 114.206,24.31 C114.308667,24.1326667 114.406667,23.904 114.5,23.624 C114.612,23.8106667 114.78,24.086 115.004,24.45 C115.228,24.814 115.466,25.2013333 115.718,25.612 C115.97,26.0226667 116.208,26.396 116.432,26.732 C116.656,27.068 116.814667,27.292 116.908,27.404 C117.113333,27.6466667 117.328,27.866 117.552,28.062 C117.776,28.258 118.037333,28.4026667 118.336,28.496 C118.653333,28.608 118.872667,28.6593333 118.994,28.65 L118.936,28.6502857 Z M128.5,28.86 C128.742667,29.0653333 128.957333,29.1213333 129.144,29.028 C129.312,29.0093333 129.508,28.916 129.732,28.748 C129.956,28.58 129.974667,28.4026667 129.788,28.216 C129.470667,27.88 129.242,27.4973333 129.102,27.068 C128.962,26.6386667 128.929333,26.2 129.004,25.752 C129.116,25.024 129.307333,24.3146667 129.578,23.624 C129.848667,22.9333333 130.142667,22.2473333 130.46,21.566 C130.777333,20.8846667 131.048,20.1986667 131.272,19.508 C131.290667,19.34 131.234667,19.2093333 131.104,19.116 C130.973333,19.0226667 130.819333,18.9526667 130.642,18.906 C130.464667,18.8593333 130.310667,18.8453333 130.18,18.864 C130.030667,18.8826667 129.834667,19.074 129.592,19.438 C129.349333,19.802 129.064667,20.264 128.738,20.824 C128.411333,21.384 128.061333,21.972 127.688,22.588 C127.314667,23.204 126.918,23.792 126.498,24.352 C126.078,24.912 125.658,25.3646667 125.238,25.71 C124.818,26.0553333 124.402667,26.228 123.992,26.228 C123.861333,26.228 123.786667,26.1953333 123.768,26.13 C123.749333,26.0646667 123.74,26.0226667 123.74,26.004 C123.721333,25.8546667 123.744667,25.6493333 123.81,25.388 C123.875333,25.1266667 123.926667,24.9213333 123.964,24.772 C124.038667,24.5293333 124.16,24.1746667 124.328,23.708 C124.496,23.2413333 124.687333,22.7513333 124.902,22.238 C125.116667,21.7246667 125.326667,21.2486667 125.532,20.81 C125.737333,20.3713333 125.914667,20.0586667 126.064,19.872 C126.194667,19.7226667 126.274,19.62 126.302,19.564 C126.33,19.508 126.297333,19.3866667 126.204,19.2 C126.129333,19.0506667 126.031333,18.8593333 125.91,18.626 C125.788667,18.3926667 125.625333,18.276 125.42,18.276 C125.121333,18.276 124.818,18.514 124.51,18.99 C124.202,19.466 123.903333,20.0726667 123.614,20.81 C123.324667,21.5473333 123.072667,22.3126667 122.858,23.106 C122.643333,23.8993333 122.494,24.618 122.41,25.262 C122.326,25.906 122.330667,26.368 122.424,26.648 C122.48,26.7973333 122.568667,26.9793333 122.69,27.194 C122.811333,27.4086667 122.956,27.6 123.124,27.768 C123.292,27.936 123.46,28.0293333 123.628,28.048 C123.870667,28.048 124.169333,27.964 124.524,27.796 C124.878667,27.628 125.224,27.4226667 125.56,27.18 C125.896,26.9373333 126.138667,26.7413333 126.288,26.592 C126.624,26.256 126.880667,25.99 127.058,25.794 C127.235333,25.598 127.356667,25.5373333 127.422,25.612 C127.487333,25.6866667 127.52,25.9666667 127.52,26.452 C127.52,26.7133333 127.557333,27.04 127.632,27.432 C127.706667,27.824 127.828,28.132 127.996,28.356 C128.089333,28.4866667 128.257333,28.6546667 128.5,28.86 Z M138.804,28.692 C138.916,28.6173333 139.009333,28.5286667 139.084,28.426 C139.158667,28.3233333 139.196,28.2066667 139.196,28.076 C139.214667,28.0573333 139.266,27.8986667 139.35,27.6 C139.434,27.3013333 139.518,26.9933333 139.602,26.676 C139.686,26.3586667 139.728,26.172 139.728,26.116 C139.821333,25.5373333 139.984667,24.9166667 140.218,24.254 C140.451333,23.5913333 140.708,22.938 140.988,22.294 C141.268,21.65 141.501333,21.0573333 141.688,20.516 C141.744,20.3666667 141.8,20.2126667 141.856,20.054 C141.912,19.8953333 141.949333,19.732 141.968,19.564 C141.893333,19.2093333 141.73,18.99 141.478,18.906 C141.226,18.822 140.969333,18.7146667 140.708,18.584 C140.577333,18.6586667 140.456,18.7613333 140.344,18.892 C140.232,19.0226667 140.157333,19.172 140.12,19.34 C140.082667,19.6386667 139.961333,20.0773333 139.756,20.656 C139.550667,21.2346667 139.336,21.818 139.112,22.406 C138.888,22.994 138.710667,23.4653333 138.58,23.82 C138.430667,23.484 138.216,23.232 137.936,23.064 L137.936,23.064 L136.284,23.064 C136.153333,23.1386667 135.934,23.19 135.626,23.218 C135.318,23.246 135.098667,23.2133333 134.968,23.12 C134.968,23.0266667 134.996,22.9566667 135.052,22.91 C135.108,22.8633333 135.145333,22.8026667 135.164,22.728 C135.238667,22.5786667 135.336667,22.3406667 135.458,22.014 C135.579333,21.6873333 135.71,21.3326667 135.85,20.95 C135.99,20.5673333 136.120667,20.2126667 136.242,19.886 C136.302667,19.7226667 136.355167,19.5815 136.3995,19.4625 L136.477278,19.2540556 L136.477278,19.2540556 L136.508,19.172 C136.601333,18.948 136.592,18.7333333 136.48,18.528 C136.368,18.3226667 136.209333,18.15 136.004,18.01 C135.798667,17.87 135.602667,17.8 135.416,17.8 C135.117333,17.8 134.958667,17.9306667 134.94,18.192 C134.921333,18.3973333 134.874667,18.6213333 134.8,18.864 C134.725333,19.1066667 134.599333,19.438 134.422,19.858 C134.244667,20.278 134.006667,20.8706667 133.708,21.636 C133.633333,21.86 133.568,22.084 133.512,22.308 C133.456,22.532 133.353333,22.7373333 133.204,22.924 C133.204,23.1666667 133.162,23.386 133.078,23.582 C132.994,23.778 132.905333,23.9786667 132.812,24.184 C132.644,24.5946667 132.527333,24.9306667 132.462,25.192 C132.396667,25.4533333 132.317333,25.7986667 132.224,26.228 C132.168,26.452 132.144667,26.6573333 132.154,26.844 C132.163333,27.0306667 132.242667,27.2266667 132.392,27.432 C132.709333,27.5253333 132.928667,27.5813333 133.05,27.6 C133.171333,27.6186667 133.381333,27.6093333 133.68,27.572 C133.736,27.4413333 133.796667,27.222 133.862,26.914 C133.927333,26.606 133.997333,26.2793333 134.072,25.934 C134.146667,25.5886667 134.230667,25.2946667 134.324,25.052 C134.417333,24.8093333 134.529333,24.688 134.66,24.688 C134.716,24.7253333 134.776667,24.772 134.842,24.828 C134.907333,24.884 134.968,24.9306667 135.024,24.968 C135.36,24.8746667 135.705333,24.7906667 136.06,24.716 C136.414667,24.6413333 136.769333,24.576 137.124,24.52 C137.329333,24.4826667 137.553333,24.436 137.796,24.38 C138.038667,24.324 138.225333,24.2213333 138.356,24.072 C138.356,24.0346667 138.374667,24.002 138.412,23.974 C138.449333,23.946 138.477333,23.9693333 138.496,24.044 C138.477333,24.324 138.398,24.66 138.258,25.052 C138.118,25.444 137.978,25.8453333 137.838,26.256 C137.698,26.6666667 137.609333,27.0633333 137.572,27.446 C137.534667,27.8286667 137.609333,28.1506667 137.796,28.412 C137.926667,28.4306667 138.043333,28.4586667 138.146,28.496 C138.248667,28.5333333 138.356,28.566 138.468,28.594 C138.58,28.622 138.692,28.6546667 138.804,28.692 Z" id="Кудряшкин" fill="#050505"></path>
                <g id="company__logo">
                    <path d="M9.74150976,26.7672171 C10.2241668,27.191062 10.4154764,27.8698593 10.4355871,28.5067025 C10.5402659,32.3369052 10.4685893,36.1692594 10.4727145,40 C10.2133379,39.7111615 9.91786521,39.4615878 9.6486911,39.1840447 C9.49141504,39.0285991 9.37487605,38.8295856 9.33310766,38.6069056 C8.51733477,35.3253347 7.7139377,32.0378471 7.05801918,28.7170113 C6.9729354,28.192046 6.91002498,27.6122176 7.15908838,27.1232898 C7.369993,26.7015964 7.82428878,26.4955906 8.25486423,26.4272805 C8.76536685,26.3320768 9.33568595,26.4068413 9.74150976,26.7672171 Z M14.8573649,26.7564596 C15.2977379,27.2319404 15.4436694,27.9085863 15.5287532,28.5427401 C15.5952732,29.1849619 15.6411669,29.8400928 15.5370037,30.4807011 C15.1848085,33.2442991 14.8413794,36.0095107 14.4386496,38.7655785 C14.3437683,39.2265368 13.9291783,39.4943982 13.6661921,39.8467058 C13.4511622,39.5820717 13.1804411,39.3690735 12.9932568,39.0796971 C12.8792961,38.9108046 12.8731082,38.6983443 12.8421687,38.5020201 C12.3925138,35.3726676 11.9696732,32.2384742 11.6329478,29.0935233 C11.5746783,28.4340894 11.5937577,27.7068834 11.9784395,27.1480321 C12.3239311,26.643506 12.9210645,26.4143715 13.490868,26.3428343 C13.9730093,26.2718349 14.5103262,26.3772582 14.8573649,26.7564596 Z M19.4111515,26.5289388 C19.7948019,26.6580286 20.1212142,26.9742987 20.2367219,27.3825452 C20.3945136,27.9338664 20.3073672,28.5190736 20.2130015,29.0741598 C19.8334764,31.1987632 19.349788,33.3013138 18.8681623,35.4033264 C18.6572577,36.3198642 18.4148978,37.2294096 18.1163312,38.1195915 C18.0374353,38.3514153 17.9600864,38.5859285 17.8383908,38.7983889 C17.6367681,39.1501586 17.3722349,39.4562091 17.1484388,39.7923805 C17.0489166,39.7057828 16.948363,39.6207986 16.8472938,39.5368902 C16.8493565,36.1644185 16.7967592,32.7919468 16.860701,29.4194751 C16.8808117,28.8434118 16.8405902,28.2539016 17.0030229,27.6950502 C17.1267811,27.2470009 17.3825481,26.81455 17.7857936,26.5891807 C18.2823734,26.3094861 18.8893043,26.3498266 19.4111515,26.5289388 Z M25.1060919,25.9087697 C25.4216753,26.1664115 25.603703,26.5827262 25.5872019,27.0006545 C25.5737948,27.7009668 25.2442886,28.3297418 25.0277117,28.9768046 C24.0727108,31.8512047 22.8908199,34.6347041 21.7243987,37.4198171 C21.4629595,38.0308423 20.9142981,38.417036 20.502802,38.9081152 C20.3656367,38.7747224 20.2269243,38.644019 20.091306,38.5095504 C20.6007773,35.353842 21.1092173,32.1981336 21.6259078,29.043501 C21.8007163,28.097918 22.0673121,27.1415776 22.6128796,26.3509024 C22.905774,25.9345877 23.3100508,25.5559242 23.8143655,25.4714779 C24.2836154,25.3902589 24.7451304,25.6118631 25.1060919,25.9087697 Z M3.89651249,25.6591961 C4.61224749,25.9872994 5.107796,26.7188084 5.28054184,27.5008776 C5.79981068,29.8379413 6.16077213,32.2088911 6.58309703,34.5658562 C6.80998709,35.8788073 7.02243869,37.1939099 7.24210952,38.5073989 L6.8945552,38.8693883 L6.8945552,38.8693883 C6.49491931,38.5057853 5.93697603,38.2922492 5.6920379,37.7726626 C4.41268737,34.587909 3.19005936,31.3778754 2.02518518,28.1457888 C1.84728275,27.6283538 1.63122154,27.0824114 1.73125943,26.5219464 C1.80396738,26.1196164 2.11800384,25.8200205 2.46607382,25.6645748 C2.91108772,25.437054 3.44840463,25.44566 3.89651249,25.6591961 Z" id="Combined-Shape" fill="#050505"></path>
                    <path d="M26.6895464,15.1093819 C27.2205734,15.6920223 27.7724749,16.2566209 28.2592072,16.880651 C28.6792429,17.4219016 29.0300364,18.0825458 28.997961,18.7994375 C28.9735225,19.4600816 28.5728339,20.0400688 28.0759189,20.4200054 C27.3407291,20.9792977 26.5642994,21.5051598 25.697753,21.8129298 C21.4928135,23.2605098 17.029743,23.6913877 12.621659,23.630895 C12.5264509,23.6266499 12.4317519,23.6208129 12.3375621,23.6139146 C13.228547,23.276429 14.1460068,23.018539 15.0476835,22.7123609 C17.0389074,22.0596764 19.0296222,21.3629489 20.8869438,20.3579208 C22.2784076,19.6134359 23.5817912,18.6811052 24.71156,17.5519079 C25.451332,16.81326 26.1106608,15.9891795 26.6895464,15.1093819 Z M23.8536689,11.4952076 C24.2329739,11.7663635 24.6153336,12.0385807 24.954417,12.3643924 C25.2344408,12.6493449 25.5083551,13.009648 25.4999293,13.4399953 C25.5068277,13.7790729 25.3469595,14.0900266 25.1585799,14.3548149 C24.5781668,15.1709359 23.9346212,15.9435446 23.1973949,16.6100257 C22.6923337,17.0748645 22.1287221,17.4627608 21.540163,17.8013077 C18.2139892,19.7986285 14.5970997,21.2584132 10.8595455,22.165804 C8.88817779,22.6460312 6.88422552,22.9824556 4.86856317,23.1825061 C4.54729948,23.2154056 4.22450839,23.2567954 3.9017173,23.2270796 C3.34574274,23.1830367 2.78467683,23.1984252 2.23328448,23.0991959 C1.57141,22.993599 0.963503752,22.6412555 0.468116162,22.1801312 C0.21049425,21.9302007 -0.0578194807,21.5948376 0.0109136381,21.2005737 C0.101030394,20.7097337 0.413638801,20.2984894 0.750685651,19.9594118 C1.05718445,19.6468661 1.47722017,19.5189824 1.87129005,19.3757102 C4.08755129,18.5813453 6.39902062,18.1387934 8.69572505,17.6813835 C10.6670927,17.2860584 12.6420243,16.8811817 14.5604421,16.2560903 C16.1845802,15.7302282 17.7654419,15.0350926 19.2159653,14.1038232 C20.0402536,13.5758386 20.8370486,12.9820548 21.498414,12.2396925 C21.8466618,11.8448979 22.1445053,11.3344243 22.6678953,11.1762942 C23.0874219,11.0494718 23.5100033,11.2590737 23.8536689,11.4952076 Z M18.2898502,6.64570834 C18.7730185,6.94764127 19.2556778,7.25063548 19.7256087,7.57432456 C20.170592,7.87519622 20.5906277,8.25194909 20.8339938,8.75234057 C21.0666682,9.22301634 21.0855061,9.81149371 20.8472313,10.284292 C20.6812536,10.6408807 20.3879923,10.9035464 20.1013497,11.1529462 C18.8646627,12.2396925 17.5307311,13.2643541 15.9895818,13.8252383 C13.968319,14.5113531 11.8773048,14.9316182 9.79850976,15.3757621 C7.79557576,15.794966 5.79569657,16.2555597 3.85538609,16.9300004 C2.59680631,17.3444285 1.35095489,17.8028996 0.089320307,18.2083069 C0.238496632,17.0828241 0.78683418,16.0284467 1.60501286,15.2786554 C2.41759107,14.5055161 3.44145997,14.045453 4.45209138,13.6267798 C6.42905953,12.8138426 8.49614444,12.2821435 10.5219895,11.6236219 C12.147655,11.0892696 13.7565191,10.4477285 15.2070425,9.50266248 C16.381106,8.74278909 17.4324682,7.77649758 18.2898502,6.64570834 Z M13.270296,0 C14.1195318,0.521086361 14.9336374,1.14034072 15.5547812,1.94691024 C16.0654428,2.60330925 16.4019805,3.40510303 16.5088987,4.24298019 C16.6209082,4.96889276 16.5073713,5.74468528 16.122975,6.36871538 C15.6683181,7.12115984 14.93211,7.63004154 14.1714635,7.9983042 C12.0570291,9.01925141 9.8809895,9.89162002 7.72887918,10.8202362 C7.6443629,10.6838623 7.56035576,10.5474884 7.47583948,10.4116451 C8.82199034,9.58331943 10.1325018,8.65151938 11.1935375,7.44272638 C12.0692484,6.45149489 12.754543,5.26021293 13.088535,3.95272129 C13.4352554,2.66910835 13.4332189,1.3138593 13.270296,0 Z" id="Combined-Shape" fill="#FCB040"></path>
                </g>
            </g>
        </g>
    </g>
</svg>