<?xml version="1.0" encoding="UTF-8"?>
<svg id="star" width="21px" height="20px" viewBox="0 0 21 20" version="1.1" xmlns="http://www.w3.org/2000/svg" xmlns:xlink="http://www.w3.org/1999/xlink">
    <path d="M20.9711864,7.55803955 C20.9022241,7.34737747 20.7211979,7.19690456 20.5013805,7.16251075 L13.9499581,6.2338779 L11.001818,0.32244196 C10.9026847,0.124677558 10.7001078,0 10.4802903,0 L10.4802903,0 C10.2604729,0 10.057896,0.124677558 9.95876263,0.326741187 L7.04941388,6.25537403 L0.497991507,7.22699914 C0.278174046,7.26139295 0.0971479011,7.41186586 0.0281855603,7.62252794 C-0.0407767805,7.83319003 0.0195652677,8.06534824 0.179040681,8.21582115 L4.93313205,12.8116939 L3.83404474,19.3207223 C3.79525343,19.5399828 3.8857665,19.7592433 4.06679264,19.8882201 C4.16592601,19.961307 4.2866101,20 4.4072942,20 C4.50211742,20 4.59263049,19.9785039 4.67883342,19.9312124 L10.5277019,16.8400688 L16.3938111,19.8968186 C16.480014,19.9398108 16.5705271,19.961307 16.6610401,19.961307 L16.6610401,19.961307 C16.979991,19.961307 17.2429099,19.6990542 17.2429099,19.3809114 C17.2429099,19.3336199 17.2385997,19.2906277 17.2256693,19.2476354 L16.0921008,12.7773001 L20.8160212,8.15563199 C20.9841169,8.00085985 21.0401488,7.76870163 20.9711864,7.55803955 Z" id="Path"></path>
</svg>